<svg xmlns="http://www.w3.org/2000/svg" viewBox="0 0 32 32" fill="none" width="32" height="32">
<defs><radialGradient id="halo" cx="0.3" cy="0.25" r="0.85"><stop stop-color="#ffffff" stop-opacity="0.06"/><stop offset="1" stop-color="#ffffff" stop-opacity="0"/></radialGradient></defs><rect width="32" height="32" rx="4" fill="#070708"/><rect width="32" height="32" rx="4" fill="url(#halo)"/><g fill="#ece8e0" shape-rendering="crispEdges"><rect x="9.23" y="5.85" width="2.09" height="2.09"/><rect x="7.54" y="7.54" width="2.09" height="2.09"/><rect x="9.23" y="7.54" width="2.09" height="2.09"/><rect x="7.54" y="9.23" width="2.09" height="2.09"/><rect x="9.23" y="9.23" width="2.09" height="2.09"/><rect x="5.85" y="10.93" width="2.09" height="2.09"/><rect x="7.54" y="10.93" width="2.09" height="2.09"/><rect x="5.85" y="12.62" width="2.09" height="2.09"/><rect x="7.54" y="12.62" width="2.09" height="2.09"/><rect x="5.85" y="14.31" width="2.09" height="2.09"/><rect x="7.54" y="14.31" width="2.09" height="2.09"/><rect x="5.85" y="16.00" width="2.09" height="2.09"/><rect x="7.54" y="16.00" width="2.09" height="2.09"/><rect x="5.85" y="17.69" width="2.09" height="2.09"/><rect x="7.54" y="17.69" width="2.09" height="2.09"/><rect x="9.23" y="17.69" width="2.09" height="2.09"/><rect x="5.85" y="19.38" width="2.09" height="2.09"/><rect x="7.54" y="19.38" width="2.09" height="2.09"/><rect x="9.23" y="19.38" width="2.09" height="2.09"/><rect x="7.54" y="21.07" width="2.09" height="2.09"/><rect x="9.23" y="21.07" width="2.09" height="2.09"/><rect x="10.93" y="21.07" width="2.09" height="2.09"/><rect x="7.54" y="22.77" width="2.09" height="2.09"/><rect x="9.23" y="22.77" width="2.09" height="2.09"/><rect x="10.93" y="22.77" width="2.09" height="2.09"/><rect x="12.62" y="22.77" width="2.09" height="2.09"/><rect x="14.31" y="22.77" width="2.09" height="2.09"/><rect x="9.23" y="24.46" width="2.09" height="2.09"/><rect x="10.93" y="24.46" width="2.09" height="2.09"/><rect x="12.62" y="24.46" width="2.09" height="2.09"/><rect x="14.31" y="24.46" width="2.09" height="2.09"/><rect x="16.00" y="24.46" width="2.09" height="2.09"/><rect x="17.69" y="24.46" width="2.09" height="2.09"/><rect x="19.38" y="24.46" width="2.09" height="2.09"/><rect x="21.07" y="24.46" width="2.09" height="2.09"/><rect x="12.62" y="26.15" width="2.09" height="2.09"/><rect x="14.31" y="26.15" width="2.09" height="2.09"/><rect x="16.00" y="26.15" width="2.09" height="2.09"/></g>
</svg>
